<?xml version="1.0" encoding="UTF-8"?>
<svg width="166px" height="99px" viewBox="0 0 166 99" version="1.1" xmlns="http://www.w3.org/2000/svg" xmlns:xlink="http://www.w3.org/1999/xlink">
    <!-- Generator: Sketch 50.2 (55047) - http://www.bohemiancoding.com/sketch -->
    <title>eye-bg-black</title>
    <desc>Created with Sketch.</desc>
    <defs></defs>
    <g id="eye-bg-black" stroke="none" stroke-width="1" fill="none" fill-rule="evenodd">
        <path d="M82.9423328,0.000305156204 C81.4638963,0.0154163785 80.0529613,0.616656213 79.0238676,1.67007537 C77.9947739,2.72349453 77.4330137,4.14158005 77.4637407,5.60839886 L77.4637407,22.3182616 C71.8720047,22.6740566 66.3174196,23.5667984 60.8549535,24.8934168 L50.8204772,8.24077236 C49.7678822,6.47402216 47.8106777,5.43674583 45.7455697,5.55118052 C43.8054882,5.66888291 42.06968,6.78744385 41.1722027,8.4982744 C40.2747253,10.2091049 40.3470267,12.2616305 41.3626964,13.9061027 L49.9554359,28.1552653 C43.0279856,30.6072205 36.280863,33.7242907 29.7711465,37.3113543 L17.4875642,18.9991764 C16.4649007,17.4245288 14.7041814,16.4754519 12.8163432,16.4812579 C10.7495553,16.4748682 8.85123557,17.6112819 7.8931341,19.4284972 C6.93503263,21.2457125 7.07666827,23.4411726 8.26045992,25.1223268 L20.2556954,42.9194663 C13.8447139,47.0403966 7.72000764,51.5591969 1.97449529,56.3102805 C0.722740831,57.3542039 -2.94875436e-14,58.8937731 0,60.5163141 C2.94875436e-14,62.1388551 0.722740831,63.6784244 1.97449529,64.7223477 C24.2133742,83.112149 52.0194518,98.2428333 80.9239042,98.9431667 C80.9623978,98.9440833 81.0007438,98.94225 81.0392374,98.9431667 C81.6979664,98.9761667 82.333199,99 82.9999975,99 C83.704775,99 84.3803585,98.9798333 85.0760964,98.9431667 C113.980547,98.2428333 141.786626,83.112149 164.025505,64.7223477 C165.277259,63.6784244 166,62.1388551 166,60.5163141 C166,58.8937731 165.277259,57.3542039 164.025505,56.3102805 C158.279992,51.5591969 152.155285,47.0403966 145.744305,42.9194663 L157.73954,25.1223268 C158.943083,23.4157859 159.07062,21.1806366 158.068896,19.3501933 C157.067172,17.51975 155.108461,16.4088092 153.010648,16.4812579 C151.18444,16.532752 149.501381,17.4748608 148.512436,18.9991764 L136.228854,37.3113543 C129.719138,33.7242907 122.972015,30.6072205 116.044563,28.1552653 L124.637304,13.9061027 C125.694953,12.2330156 125.766254,10.1253571 124.82406,8.38565287 C123.881866,6.64594867 122.071169,5.54191997 120.081422,5.49394385 C118.065291,5.4554757 116.187503,6.50771348 115.179523,8.24077236 L105.145047,24.8934168 C99.6825809,23.5667984 94.1279958,22.6740566 88.5362599,22.3182616 L88.5362599,5.60839886 C88.5674063,4.1217307 87.9899506,2.68602236 86.9357819,1.62918496 C85.8816131,0.572347569 84.4407667,-0.0153555289 82.9423272,0.000305156204 L82.9423328,0.000305156204 Z M82.5,33 C83.4303575,33 84.3751137,33.0774561 85.3072907,33.1145323 C99.2208549,34.5159009 110,46.2003047 110,60.4999541 C110,75.752938 97.7529751,88 82.5,88 C67.2470249,88 55,75.752938 55,60.4999541 C55,46.2003047 65.7791469,34.5159009 79.6927075,33.1145323 C80.6248845,33.0774561 81.5696407,33 82.5,33 Z M51,40 C47.0914335,45.9319723 44.8152356,52.9587494 44.8152356,60.5000182 C44.8152356,68.041105 47.0914335,75.068246 51,81 C38.37261,76.0755799 26.1286612,68.8306714 15,60.5000182 C26.1388819,52.1595409 38.3640333,44.9235105 51,40 Z M116,40 C128.635967,44.9235105 140.861118,52.1595409 152,60.5000182 C140.871338,68.8306714 128.627389,76.0755799 116,81 C119.908565,75.068246 122.184765,68.041105 122.184765,60.5000182 C122.184765,52.9587494 119.908565,45.9319723 116,40 Z" id="Shape-Copy-2" fill="#212121" fill-rule="nonzero"></path>
    </g>
</svg>