<?xml version="1.0" encoding="UTF-8"?>
<svg width="830px" height="499px" viewBox="0 0 830 499" version="1.1" xmlns="http://www.w3.org/2000/svg" xmlns:xlink="http://www.w3.org/1999/xlink">
    <!-- Generator: Sketch 50.2 (55047) - http://www.bohemiancoding.com/sketch -->
    <title>eye-bg-grey</title>
    <desc>Created with Sketch.</desc>
    <defs></defs>
    <g id="eye-bg-grey" stroke="none" stroke-width="1" fill="none" fill-rule="evenodd" opacity="0.0224888393">
        <path d="M395.119338,8.41785464 C389.973869,13.7275128 387.165068,20.8752368 387.318703,28.2685963 L387.318703,112.493056 C359.360024,114.286407 331.587098,118.786186 304.274768,125.472879 L254.102386,41.5368223 C248.839411,32.6316875 239.053388,27.4033957 228.727849,27.9801927 C219.027441,28.5734603 210.3484,34.2114594 205.861013,42.8347366 C201.373626,51.4580138 201.735133,61.803572 206.813482,70.0923764 L249.777179,141.913913 C215.139928,154.272758 181.404315,169.984051 148.855732,188.064301 L87.437821,95.7635255 C82.3245037,87.8266652 73.5209069,83.0429342 64.0817158,83.0721989 C53.7477763,83.0399921 44.2561778,88.7679765 39.4656705,97.9274759 C34.6751632,107.086975 35.3833413,118.152981 41.3022996,126.626678 L101.278477,216.331451 C69.2235693,237.102605 38.6000382,259.879184 9.87247644,283.826565 C3.61370416,289.088361 -1.47437718e-13,296.848412 0,305.026674 C1.47437718e-13,313.204937 3.61370416,320.964988 9.87247644,326.226783 C121.066871,418.918811 260.097259,495.183574 404.619521,498.713537 C408.489832,498.87987 411.665995,499 414.999988,499 C418.523875,499 421.901793,498.898352 425.380482,498.713537 C569.902735,495.183574 708.933132,418.918811 820.127524,326.226783 C826.386296,320.964988 830,313.204937 830,305.026674 C830,296.848412 826.386296,289.088361 820.127524,283.826565 C791.399959,259.879184 760.776424,237.102605 728.721526,216.331451 L788.697699,126.626678 C794.715415,118.025022 795.3531,106.758967 790.344479,97.5327926 C785.335858,88.3066186 775.542306,82.7070279 765.053242,83.0721989 C755.922198,83.33175 747.506903,88.0803589 742.562182,95.7635255 L681.14427,188.064301 C648.595688,169.984051 614.860075,154.272758 580.222814,141.913913 L623.186521,70.0923764 C628.474763,61.6593411 628.831272,51.0358906 624.120301,42.2670786 C619.40933,33.4982665 610.355845,27.9335158 600.407109,27.6916968 C590.326455,27.4978018 580.937513,32.8015053 575.897617,41.5368223 L525.725235,125.472879 C498.412905,118.786186 470.639979,114.286407 442.681299,112.493056 L442.681299,28.2685963 C442.837032,20.7751881 439.949753,13.538638 434.678909,8.21175048 C429.408065,2.884863 422.203833,-0.0773980699 414.711636,0.00153811056 C407.319482,0.0777047766 400.264806,3.10819647 395.119338,8.41785464 Z M415.5,167 C420.185619,167 424.943754,167.390097 429.638537,167.576826 C499.712306,174.634628 554,233.481535 554,305.499769 C554,382.319342 492.319529,444 415.5,444 C338.680471,444 277,382.319342 277,305.499769 C277,233.481535 331.287704,174.634628 401.361454,167.576826 C406.056236,167.390097 410.814372,167 415.5,167 Z M252,201 C232.67431,231.238591 221.419776,267.058015 221.419776,305.500093 C221.419776,343.941243 232.67431,379.762522 252,410 C189.564571,384.897468 129.025047,347.966106 74,305.500093 C129.075583,262.984001 189.522165,226.097895 252,201 Z M578,201 C640.477839,226.097895 700.924415,262.984001 756,305.500093 C700.97495,347.966106 640.435423,384.897468 578,410 C597.325682,379.762522 608.580226,343.941243 608.580226,305.500093 C608.580226,267.058015 597.325682,231.238591 578,201 Z" id="Shape-Copy" fill="#FFFFFF" fill-rule="nonzero"></path>
    </g>
</svg>