<?xml version="1.0" encoding="UTF-8"?>
<svg width="18px" height="11px" viewBox="0 0 18 11" version="1.1" xmlns="http://www.w3.org/2000/svg" xmlns:xlink="http://www.w3.org/1999/xlink">
    <!-- Generator: Sketch 50.2 (55047) - http://www.bohemiancoding.com/sketch -->
    <title>eye</title>
    <desc>Created with Sketch.</desc>
    <defs></defs>
    <g id="eye" stroke="none" stroke-width="1" fill="none" fill-rule="evenodd">
        <path d="M8.99374693,3.39062449e-05 C8.83343454,0.00171293095 8.68044158,0.068517357 8.56885311,0.18556393 C8.45726464,0.302610503 8.39635088,0.460175561 8.39968272,0.623155429 L8.39968272,2.47980685 C7.79334991,2.51933963 7.1910455,2.61853315 6.5987299,2.7659352 L5.51065416,0.915641374 C5.39651735,0.719335796 5.18429035,0.60408287 4.96036298,0.616797836 C4.7499927,0.629875879 4.56177253,0.754160428 4.46445571,0.944252711 C4.36713889,1.13434499 4.37497879,1.36240339 4.48511166,1.54512253 L5.41685449,3.12836282 C4.66568518,3.40080228 3.93406949,3.74714341 3.22819661,4.14570603 L1.8962419,2.1110196 C1.78535068,1.93605875 1.59442931,1.83060577 1.38972396,1.83125088 C1.16561443,1.83054091 0.959772532,1.9568091 0.855882011,2.15872191 C0.75199149,2.36063473 0.767349571,2.60457473 0.895712522,2.79136965 L2.19640071,4.76882959 C1.50123403,5.22671073 0.837109262,5.72879965 0.214101899,6.25669784 C0.0783694877,6.37268932 -3.19744448e-15,6.54375257 0,6.7240349 C3.19744448e-15,6.90431724 0.0783694877,7.07538049 0.214101899,7.19137197 C2.6255466,9.23468322 5.64066345,10.9158704 8.77488118,10.9936852 C8.77905518,10.993787 8.78321318,10.9935833 8.78738719,10.9936852 C8.85881563,10.9973519 8.92769628,11 8.99999973,11 C9.07642138,11 9.14967743,10.9977593 9.22511888,10.9936852 C12.3593364,10.9158704 15.3744535,9.23468322 17.7858981,7.19137197 C17.9216305,7.07538049 18,6.90431724 18,6.7240349 C18,6.54375257 17.9216305,6.37268932 17.7858981,6.25669784 C17.1628907,5.72879965 16.4987658,5.22671073 15.8035994,4.76882959 L17.1042874,2.79136965 C17.2347921,2.60175399 17.2486214,2.35340407 17.1400007,2.15002148 C17.0313801,1.94663889 16.8189898,1.82320102 16.5915161,1.83125088 C16.3934934,1.83697244 16.2109931,1.9416512 16.1037582,2.1110196 L14.7718035,4.14570603 C14.0659306,3.74714341 13.3343149,3.40080228 12.5831454,3.12836282 L13.5148884,1.54512253 C13.6295732,1.35922395 13.6373047,1.12503967 13.5351391,0.931739207 C13.4329734,0.738438741 13.2366328,0.615768886 13.0208771,0.610438206 C12.8022605,0.606163967 12.5986449,0.723079276 12.4893459,0.915641374 L11.4012702,2.7659352 C10.8089546,2.61853315 10.2066502,2.51933963 9.60031734,2.47980685 L9.60031734,0.623155429 C9.60369466,0.457970078 9.54107898,0.298446929 9.42677153,0.181020552 C9.31246407,0.0635941743 9.15622771,-0.00170616988 8.99374633,3.39062449e-05 L8.99374693,3.39062449e-05 Z M9.00000093,3.67518507 C9.1015482,3.67518507 9.20466707,3.68378137 9.30641294,3.68789619 C10.8250598,3.84342397 12.001589,5.14019165 12.001589,6.72720657 C12.001589,8.4200252 10.6648427,9.77923825 9.00000093,9.77923825 C7.3351592,9.77923825 5.99841289,8.4200252 5.99841289,6.72720657 C5.99841289,5.14019165 7.17494229,3.84342397 8.69358872,3.68789619 C8.79533459,3.68378137 8.89845346,3.67518507 9.00000093,3.67518507 Z M5.46062832,4.43183438 C5.04172864,5.0960348 4.79777767,5.88282003 4.79777767,6.72721268 C4.79777767,7.57158496 5.04172864,8.35841094 5.46062832,9.02258691 C4.1072908,8.47120169 2.79504851,7.65999237 1.6023369,6.72721268 C2.79614391,5.79333299 4.1063716,4.98311775 5.46062832,4.43183438 Z M12.5393735,4.43183438 C13.8936303,4.98311775 15.2038577,5.79333299 16.3976648,6.72721268 C15.2049531,7.65999237 13.8927109,8.47120169 12.5393735,9.02258691 C12.958273,8.35841094 13.2022242,7.57158496 13.2022242,6.72721268 C13.2022242,5.88282003 12.958273,5.0960348 12.5393735,4.43183438 Z" id="Shape-Copy-2" fill="#FBEA4E" fill-rule="nonzero"></path>
    </g>
</svg>