<?xml version="1.0" encoding="UTF-8"?>
<svg width="236px" height="31px" viewBox="0 0 236 31" version="1.1" xmlns="http://www.w3.org/2000/svg" xmlns:xlink="http://www.w3.org/1999/xlink">
    <!-- Generator: Sketch 50.2 (55047) - http://www.bohemiancoding.com/sketch -->
    <title>Group</title>
    <desc>Created with Sketch.</desc>
    <defs></defs>
    <g id="Page-1" stroke="none" stroke-width="1" fill="none" fill-rule="evenodd">
        <g id="Onboarding" transform="translate(-522.000000, -47.000000)" fill="#000000">
            <g id="Group" transform="translate(522.000000, 47.000000)">
                <path d="M130.98402,8.50739031e-05 C130.574333,0.00429790211 130.183351,0.171916383 129.89818,0.465597056 C129.61301,0.759277728 129.457341,1.15462303 129.465856,1.56355458 L129.465856,6.22206464 C127.916339,6.32125604 126.377116,6.57014176 124.863421,6.93998712 L122.082783,2.29742886 C121.7911,1.80488001 121.248742,1.51569977 120.676483,1.54760279 C120.13887,1.58041681 119.657863,1.89225824 119.409165,2.36921735 C119.160466,2.84617646 119.180501,3.41839606 119.461952,3.87685526 L121.843073,7.84935152 C119.923418,8.53292732 118.053733,9.40192924 116.249836,10.4019597 L112.845952,5.29674334 C112.562563,4.85775039 112.074653,4.5931591 111.551517,4.59477775 C110.978792,4.59299637 110.452752,4.90981494 110.187254,5.41643285 C109.921756,5.92305077 109.961004,6.53511879 110.289043,7.0038045 L113.613024,11.9654343 C111.836487,13.1143004 110.139279,14.374088 108.547149,15.6986333 C108.200278,15.9896667 108,16.4188802 108,16.8712252 C108,17.3235703 108.200278,17.7527838 108.547149,18.0438171 C114.70973,23.1706739 122.415029,27.3889279 130.424696,27.5841725 C130.435363,27.584428 130.445989,27.5839169 130.456656,27.5841725 C130.639196,27.5933725 130.815224,27.6000169 130.999999,27.6000169 C131.195299,27.6000169 131.382509,27.5943947 131.575304,27.5841725 C139.584971,27.3889279 147.29027,23.1706739 153.452851,18.0438171 C153.799722,17.7527838 154,17.3235703 154,16.8712252 C154,16.4188802 153.799722,15.9896667 153.452851,15.6986333 C151.860721,14.374088 150.163513,13.1143004 148.386976,11.9654343 L151.710957,7.0038045 C152.044469,6.52804129 152.07981,5.90490839 151.802224,5.39460266 C151.524638,4.88429694 150.981863,4.5745799 150.400541,4.59477775 C149.894483,4.60913369 149.428093,4.87178236 149.154049,5.29674334 L145.750164,10.4019597 C143.946267,9.40192924 142.076582,8.53292732 140.156927,7.84935152 L142.538048,3.87685526 C142.831131,3.41041855 142.85089,2.82282855 142.5898,2.33781981 C142.32871,1.85281107 141.82695,1.54502106 141.275575,1.53164589 C140.716888,1.52092143 140.196537,1.81427275 139.917217,2.29742886 L137.136579,6.93998712 C135.622884,6.57014176 134.083661,6.32125604 132.534144,6.22206464 L132.534144,1.56355458 C132.542775,1.14908927 132.382757,0.748830936 132.090638,0.454197299 C131.798519,0.159563663 131.399249,-0.00428093796 130.984018,8.5073903e-05 L130.98402,8.50739031e-05 Z M131.000002,9.22137912 C131.259512,9.22137912 131.523038,9.24294802 131.783055,9.25327247 C135.664042,9.64350607 138.670727,12.8972161 138.670727,16.8791832 C138.670727,21.1266217 135.254598,24.5370129 131.000002,24.5370129 C126.745407,24.5370129 123.329277,21.1266217 123.329277,16.8791832 C123.329277,12.8972161 126.335964,9.64350607 130.216949,9.25327247 C130.476966,9.24294802 130.740492,9.22137912 131.000002,9.22137912 Z M121.954939,11.1198822 C120.884418,12.7864224 120.260987,14.7605393 120.260987,16.8791985 C120.260987,18.9978067 120.884418,20.9720258 121.954939,22.6385047 C118.49641,21.2550282 115.142902,19.219629 112.094861,16.8791985 C115.145701,14.5360081 118.494061,12.5031031 121.954939,11.1198822 Z M140.045066,11.1198822 C143.505944,12.5031031 146.854303,14.5360081 149.905143,16.8791985 C146.857102,19.219629 143.503594,21.2550282 140.045066,22.6385047 C141.115587,20.9720258 141.739017,18.9978067 141.739017,16.8791985 C141.739017,14.7605393 141.115587,12.7864224 140.045066,11.1198822 Z" id="Shape" fill-rule="nonzero"></path>
                <path d="M164.875,19.15 L168.425,18.375 C168.641668,19.775007 169.004164,20.7708304 169.5125,21.3625 C170.020836,21.9541696 170.816661,22.25 171.9,22.25 C172.866672,22.25 173.629164,22.0750017 174.1875,21.725 C174.745836,21.3749982 175.025,20.8750032 175.025,20.225 C175.025,19.5416632 174.750003,19.0083352 174.2,18.625 C173.666664,18.2416648 172.433343,17.750003 170.5,17.15 C168.716658,16.5999972 167.437504,15.925004 166.6625,15.125 C165.887496,14.324996 165.5,13.3166727 165.5,12.1 C165.5,10.7333265 166.024995,9.5666715 167.075,8.6 C168.158339,7.61666175 169.599991,7.125 171.4,7.125 C173.100009,7.125 174.533328,7.53332925 175.7,8.35 C176.866673,9.16667075 177.599998,10.3499922 177.9,11.9 L174.625,12.725 C174.108331,11.0749918 173.033342,10.25 171.4,10.25 C170.549996,10.25 169.908336,10.4124984 169.475,10.7375 C169.041665,11.0625016 168.825,11.5083305 168.825,12.075 C168.825,12.5916692 169.066664,12.9916653 169.55,13.275 C170.016669,13.541668 171.258323,14.0166632 173.275,14.7 C175.191676,15.36667 176.516663,16.0916627 177.25,16.875 C177.96667,17.6416705 178.325,18.6833267 178.325,20 C178.325,21.5500077 177.741673,22.8333283 176.575,23.85 C175.408328,24.8666718 173.85001,25.375 171.9,25.375 C169.883323,25.375 168.270839,24.8458386 167.0625,23.7875 C165.854161,22.7291614 165.125001,21.1833435 164.875,19.15 Z M189.175,19.725 L189.175,17 C189.175,16.2333295 188.912503,15.5916692 188.3875,15.075 C187.862497,14.5583307 187.175004,14.3 186.325,14.3 C185.341662,14.3 184.55417,14.6583298 183.9625,15.375 C183.37083,16.0916702 183.075,17.0916603 183.075,18.375 C183.075,19.6583397 183.374997,20.6583298 183.975,21.375 C184.575003,22.0916702 185.358328,22.45 186.325,22.45 C187.175004,22.45 187.862497,22.1916693 188.3875,21.675 C188.912503,21.1583307 189.175,20.5083372 189.175,19.725 Z M192.425,30.625 L189.175,30.625 L189.175,23.725 L189.125,23.725 L189.125,23.75 C188.558331,24.6333378 187.63334,25.1583325 186.35,25.325 C186.116665,25.3583335 185.883335,25.375 185.65,25.375 C184.016658,25.375 182.641672,24.7500062 181.525,23.5 C180.391661,22.233327 179.825,20.5250107 179.825,18.375 C179.825,16.2083225 180.408328,14.5083395 181.575,13.275 C182.741673,12.008327 184.116659,11.375 185.7,11.375 C186.583338,11.375 187.33333,11.541665 187.95,11.875 C188.56667,12.208335 188.966666,12.5333318 189.15,12.85 L189.275,13.025 L189.325,13.025 L189.325,11.75 L192.425,11.75 L192.425,30.625 Z M195.8,20.3 L195.8,11.75 L199.05,11.75 L199.05,19.95 C199.05,20.7833375 199.208332,21.3749982 199.525,21.725 C199.841668,22.0750017 200.349996,22.25 201.05,22.25 C201.866671,22.25 202.508331,22.0416687 202.975,21.625 C203.441669,21.2083313 203.675,20.566671 203.675,19.7 L203.675,11.75 L206.925,11.75 L206.925,25 L203.825,25 L203.825,23.725 L203.775,23.725 C202.941663,24.8250055 201.791674,25.375 200.325,25.375 C198.824993,25.375 197.695837,24.9291711 196.9375,24.0375 C196.179163,23.1458289 195.8,21.900008 195.8,20.3 Z M220.7,25 L217.975,25 L217.975,23.725 L217.925,23.725 C217.925,23.7416668 217.8875,23.8041661 217.8125,23.9125 C217.7375,24.0208339 217.608334,24.1583325 217.425,24.325 C217.241666,24.4916675 217.020835,24.6499993 216.7625,24.8 C216.504165,24.9500008 216.158336,25.0833327 215.725,25.2 C215.291665,25.3166673 214.825002,25.375 214.325,25.375 C212.791659,25.375 211.612504,25.008337 210.7875,24.275 C209.962496,23.541663 209.55,22.6000058 209.55,21.45 C209.55,20.316661 209.887497,19.4458364 210.5625,18.8375 C211.237503,18.2291636 212.399992,17.725002 214.05,17.325 C215.616675,16.9416648 216.566665,16.650001 216.9,16.45 C217.283335,16.2166655 217.475,15.9083353 217.475,15.525 C217.475,15.1083312 217.283335,14.7708346 216.9,14.5125 C216.516665,14.2541654 215.958337,14.125 215.225,14.125 C214.391663,14.125 213.775002,14.3041649 213.375,14.6625 C212.974998,15.0208351 212.658335,15.566663 212.425,16.3 L209.725,15.175 C210.058335,14.0249942 210.691662,13.1041701 211.625,12.4125 C212.558338,11.7208299 213.741659,11.375 215.175,11.375 C216.808341,11.375 218.133328,11.7999958 219.15,12.65 C220.183338,13.5000042 220.7,14.8166577 220.7,16.6 L220.7,25 Z M214.7,19.575 C213.916663,19.7583343 213.383335,19.983332 213.1,20.25 C212.816665,20.516668 212.675,20.8416647 212.675,21.225 C212.675,22.1250045 213.324994,22.575 214.625,22.575 C215.575005,22.575 216.304164,22.3958351 216.8125,22.0375 C217.320836,21.6791649 217.575,21.2083363 217.575,20.625 L217.575,18.325 L217.525,18.325 C217.425,18.4916675 217.35,18.5999997 217.3,18.65 C217.049999,18.9000012 216.183341,19.2083315 214.7,19.575 Z M232.175,19.575 L232.175,17.15 C232.175,16.3333292 231.916669,15.6541694 231.4,15.1125 C230.883331,14.5708306 230.191671,14.3 229.325,14.3 C228.358328,14.3 227.616669,14.6458299 227.1,15.3375 C226.583331,16.0291701 226.325,17.04166 226.325,18.375 C226.325,19.70834 226.583331,20.7208299 227.1,21.4125 C227.616669,22.1041701 228.358328,22.45 229.325,22.45 C230.191671,22.45 230.883331,22.1750027 231.4,21.625 C231.916669,21.0749973 232.175,20.3916707 232.175,19.575 Z M235.425,25 L232.375,25 L232.375,23.725 L232.325,23.725 C232.241666,23.8416673 232.116667,23.9916657 231.95,24.175 C231.799999,24.3583342 231.41667,24.6083318 230.8,24.925 C230.199997,25.2250015 229.54167,25.375 228.825,25.375 C227.074991,25.375 225.675005,24.741673 224.625,23.475 C223.591661,22.1916602 223.075,20.4916773 223.075,18.375 C223.075,16.241656 223.641661,14.541673 224.775,13.275 C225.891672,12.008327 227.224992,11.375 228.775,11.375 C229.425003,11.375 230.033331,11.5041654 230.6,11.7625 C231.16667,12.0208346 231.566665,12.2999985 231.8,12.6 L232.125,13.025 L232.175,13.025 L232.175,6.75 L235.425,6.75 L235.425,25 Z" id="Squad"></path>
                <path d="M0.875,17.15 L4.425,16.375 C4.64166775,17.775007 5.00416412,18.7708304 5.5125,19.3625 C6.02083587,19.9541696 6.81666125,20.25 7.9,20.25 C8.8666715,20.25 9.62916388,20.0750017 10.1875,19.725 C10.7458361,19.3749982 11.025,18.8750032 11.025,18.225 C11.025,17.5416632 10.7500028,17.0083352 10.2,16.625 C9.666664,16.2416648 8.433343,15.750003 6.5,15.15 C4.71665775,14.5999972 3.43750387,13.925004 2.6625,13.125 C1.88749612,12.324996 1.5,11.3166727 1.5,10.1 C1.5,8.7333265 2.02499475,7.5666715 3.075,6.6 C4.15833875,5.61666175 5.599991,5.125 7.4,5.125 C9.1000085,5.125 10.5333275,5.53332925 11.7,6.35 C12.8666725,7.16667075 13.5999985,8.34999225 13.9,9.9 L10.625,10.725 C10.1083308,9.07499175 9.0333415,8.25 7.4,8.25 C6.54999575,8.25 5.9083355,8.41249837 5.475,8.7375 C5.0416645,9.06250162 4.825,9.5083305 4.825,10.075 C4.825,10.5916692 5.06666425,10.9916653 5.55,11.275 C6.016669,11.541668 7.25832325,12.0166632 9.275,12.7 C11.1916763,13.36667 12.516663,14.0916627 13.25,14.875 C13.9666702,15.6416705 14.325,16.6833267 14.325,18 C14.325,19.5500077 13.7416725,20.8333283 12.575,21.85 C11.4083275,22.8666718 9.85000975,23.375 7.9,23.375 C5.88332325,23.375 4.27083938,22.8458386 3.0625,21.7875 C1.85416063,20.7291614 1.12500125,19.1833435 0.875,17.15 Z M19.95,15 L19.95,17.725 C19.95,18.5083372 20.2124974,19.1583307 20.7375,19.675 C21.2625026,20.1916693 21.9499957,20.45 22.8,20.45 C23.7666715,20.45 24.549997,20.0916702 25.15,19.375 C25.750003,18.6583298 26.05,17.6583397 26.05,16.375 C26.05,15.0916603 25.7541696,14.0916702 25.1625,13.375 C24.5708304,12.6583298 23.7833383,12.3 22.8,12.3 C21.9499957,12.3 21.2625026,12.5583307 20.7375,13.075 C20.2124974,13.5916692 19.95,14.2333295 19.95,15 Z M19.95,28.625 L16.7,28.625 L16.7,9.75 L19.8,9.75 L19.8,11.025 L19.85,11.025 C19.85,10.9749997 19.9583323,10.8291679 20.175,10.5875 C20.3916678,10.3458321 20.7958304,10.0833347 21.3875,9.8 C21.9791696,9.51666525 22.6583295,9.375 23.425,9.375 C24.9916745,9.375 26.3583275,10.008327 27.525,11.275 C28.7083393,12.541673 29.3,14.241656 29.3,16.375 C29.3,18.5250107 28.733339,20.233327 27.6,21.5 C26.466661,22.7500062 25.0916748,23.375 23.475,23.375 C22.608329,23.375 21.8875029,23.2125016 21.3125,22.8875 C20.7374971,22.5624984 20.3333345,22.233335 20.1,21.9 L20,21.725 L19.95,21.725 L19.95,28.625 Z M40.525,18.425 L42.8,20.425 C41.4499933,22.3916765 39.6250115,23.375 37.325,23.375 C35.4749907,23.375 33.9666725,22.741673 32.8,21.475 C31.6333275,20.208327 31.05,18.508344 31.05,16.375 C31.05,14.2583227 31.6249942,12.566673 32.775,11.3 C33.9583392,10.0166603 35.4249912,9.375 37.175,9.375 C38.9416755,9.375 40.391661,10.0166603 41.525,11.3 C42.6750057,12.566673 43.25,14.2583227 43.25,16.375 L43.25,17.35 L34.35,17.35 C34.4000002,18.3666718 34.6791641,19.1458306 35.1875,19.6875 C35.6958359,20.2291694 36.3916622,20.5 37.275,20.5 C37.9750035,20.5 38.5708309,20.3291684 39.0625,19.9875 C39.5541691,19.6458316 40.0416643,19.1250035 40.525,18.425 Z M34.35,14.925 L40.1,14.925 C40.0166663,14.0749957 39.7208359,13.4125024 39.2125,12.9375 C38.7041641,12.4624976 38.0250043,12.225 37.175,12.225 C36.3916628,12.225 35.7416692,12.4791641 35.225,12.9875 C34.7083307,13.4958359 34.416667,14.1416628 34.35,14.925 Z M49.25,23 L45.875,23 L45.875,4.75 L49.25,4.75 L49.25,23 Z M56.125,23 L52.75,23 L52.75,4.75 L56.125,4.75 L56.125,23 Z M62.875,23 L59.625,23 L59.625,9.75 L62.875,9.75 L62.875,23 Z M62.875,7.825 L59.625,7.825 L59.625,4.75 L62.875,4.75 L62.875,7.825 Z M69.625,23 L66.375,23 L66.375,9.75 L69.5,9.75 L69.5,11.025 L69.55,11.025 C69.9166685,10.5416642 70.4208301,10.1458349 71.0625,9.8375 C71.7041699,9.52916512 72.3666632,9.375 73.05,9.375 C74.516674,9.375 75.6666625,9.81249563 76.5,10.6875 C77.3333375,11.5625044 77.75,12.7749923 77.75,14.325 L77.75,23 L74.5,23 L74.5,15.125 C74.5,14.191662 74.3208351,13.5000023 73.9625,13.05 C73.6041649,12.5999977 73.0083375,12.375 72.175,12.375 C71.374996,12.375 70.7500022,12.6041644 70.3,13.0625 C69.8499978,13.5208356 69.625,14.1333295 69.625,14.9 L69.625,23 Z M89.6,17.725 L89.6,15 C89.6,14.2333295 89.3375026,13.5916692 88.8125,13.075 C88.2874974,12.5583307 87.6000042,12.3 86.75,12.3 C85.7666618,12.3 84.9791696,12.6583298 84.3875,13.375 C83.7958304,14.0916702 83.5,15.0916603 83.5,16.375 C83.5,17.6583397 83.799997,18.6583298 84.4,19.375 C85.000003,20.0916702 85.7833285,20.45 86.75,20.45 C87.6000042,20.45 88.2874974,20.1916693 88.8125,19.675 C89.3375026,19.1583307 89.6,18.5083372 89.6,17.725 Z M81.2,25.7 L83.625,24.025 C84.025002,24.7916705 84.4666643,25.341665 84.95,25.675 C85.4333357,26.008335 86.0499963,26.175 86.8,26.175 C88.666676,26.175 89.6,25.2500093 89.6,23.4 L89.6,21.725 L89.55,21.725 C89.2999987,22.191669 88.8625031,22.5833317 88.2375,22.9 C87.6124969,23.2166682 86.9500035,23.375 86.25,23.375 C84.5499915,23.375 83.1250058,22.7583395 81.975,21.525 C80.8249943,20.2749938 80.25,18.5583443 80.25,16.375 C80.25,14.241656 80.8416607,12.541673 82.025,11.275 C83.1916725,10.008327 84.5833253,9.375 86.2,9.375 C87.7166742,9.375 88.8833292,9.9249945 89.7,11.025 L89.75,11.025 L89.75,9.75 L92.85,9.75 L92.85,23 C92.85,24.933343 92.283339,26.4166615 91.15,27.45 C90.016661,28.4833385 88.5666755,29 86.8,29 C85.4499933,29 84.2916715,28.7083363 83.325,28.125 C82.3583285,27.5416637 81.6500022,26.7333385 81.2,25.7 Z" id="Spelling"></path>
            </g>
        </g>
    </g>
</svg>