<?xml version="1.0" encoding="UTF-8"?>
<svg width="23px" height="23px" viewBox="0 0 23 23" version="1.1" xmlns="http://www.w3.org/2000/svg" xmlns:xlink="http://www.w3.org/1999/xlink">
    <!-- Generator: Sketch 50.2 (55047) - http://www.bohemiancoding.com/sketch -->
    <title>noun_sent_709933</title>
    <desc>Created with Sketch.</desc>
    <defs></defs>
    <g id="Symbols" stroke="none" stroke-width="1" fill="none" fill-rule="evenodd">
        <g id="active" fill="#FBEA4E" fill-rule="nonzero">
            <g id="noun_sent_709933">
                <path d="M22.970911,1.27248196 C22.977894,1.24491001 22.9815909,1.21733806 22.9861093,1.18935459 C22.9910385,1.15972503 22.9959677,1.130507 22.9984323,1.10046592 C23.0004861,1.07124789 23.0000754,1.04244138 22.9996646,1.01322334 C22.9992538,0.984005306 22.9992538,0.955198793 22.9963785,0.926392281 C22.9935031,0.897585768 22.9881632,0.869190777 22.9828232,0.840795785 C22.9774833,0.811989273 22.9725541,0.78318276 22.9647495,0.754787769 C22.956945,0.725981256 22.9466758,0.69882083 22.9364067,0.67083736 C22.9265483,0.644088455 22.9175115,0.61733955 22.9051885,0.591413689 C22.8912225,0.561784133 22.8743811,0.533389142 22.8579504,0.50499415 C22.8476813,0.487710243 22.8402875,0.469603292 22.8291968,0.452730906 C22.8255,0.447381125 22.8209815,0.443265909 22.8172846,0.438327649 C22.7988002,0.411578745 22.7770296,0.386887448 22.7556698,0.36178463 C22.7380069,0.340797028 22.7211655,0.318986382 22.7018595,0.300056388 C22.6821427,0.279891829 22.6595506,0.262607921 22.63778,0.244089449 C22.6135449,0.223513368 22.5901312,0.202525766 22.564253,0.184418815 C22.558913,0.180715121 22.5543946,0.175776861 22.5490546,0.172073167 C22.5318025,0.16013904 22.5124965,0.152731651 22.4948336,0.142032089 C22.4673123,0.125571225 22.439791,0.10911036 22.4110374,0.0959416687 C22.3855699,0.0840075419 22.3588701,0.0745425449 22.3325811,0.0646660262 C22.3042383,0.0539664643 22.2763062,0.0432669024 22.2471419,0.0354479918 C22.2200313,0.0280406028 22.19251,0.0231023434 22.1649887,0.0181640841 C22.1350028,0.0124027815 22.1054277,0.00705300058 22.0754418,0.00376082769 C22.0483313,0.00129169802 22.0212207,0.00088017641 21.9941102,0.000468654799 C21.962892,5.71331874e-05 21.9320846,-0.000765910036 21.9008664,0.00170321963 C21.8737558,0.00376082769 21.8466453,0.00828756542 21.8199455,0.0124027815 C21.7895489,0.0169295193 21.7591522,0.021456257 21.7287555,0.028863646 C21.7000019,0.0358595134 21.6720699,0.0461475537 21.6441378,0.0556125507 C21.622778,0.0630199397 21.6010074,0.0671351559 21.5800584,0.0761886313 L0.631007772,8.84612569 C0.244888016,9.00785369 -0.00485752806,9.38851118 7.1660315e-05,9.8078517 C0.00541161439,10.2276037 0.264194004,10.6016769 0.654421417,10.7539399 L8.98064211,14.002903 L12.2236373,22.3444461 C12.3756206,22.7349801 12.7485959,22.9942387 13.1667553,23 C13.1712738,23 13.1757922,23 13.1807214,23 C13.5935409,23 13.9669269,22.7518525 14.1271255,22.3699604 L22.9228514,1.42474495 C22.930656,1.406638 22.9343529,1.38729649 22.9409251,1.36877801 C22.951605,1.33585628 22.9626957,1.30499216 22.970911,1.27248196 Z M17.5475715,3.99346285 L9.52244207,12.0049656 L3.77049,9.76052671 L17.5475715,3.99346285 Z M13.2168688,19.229639 L10.974088,13.460929 L19.007022,5.44078436 L13.2168688,19.229639 Z" id="Shape"></path>
            </g>
        </g>
    </g>
</svg>